<svg id="visual" viewBox="0 0 960 540" width="960" height="540" xmlns="http://www.w3.org/2000/svg" xmlns:xlink="http://www.w3.org/1999/xlink" version="1.1"><rect x="0" y="0" width="960" height="540" fill="#ffffff"></rect><defs><linearGradient id="grad1_0" x1="43.8%" y1="0%" x2="100%" y2="100%"><stop offset="14.444444444444446%" stop-color="#0a497e" stop-opacity="1"></stop><stop offset="85.55555555555554%" stop-color="#0a497e" stop-opacity="1"></stop></linearGradient></defs><defs><linearGradient id="grad1_1" x1="43.8%" y1="0%" x2="100%" y2="100%"><stop offset="14.444444444444446%" stop-color="#0a497e" stop-opacity="1"></stop><stop offset="85.55555555555554%" stop-color="#3d6090" stop-opacity="1"></stop></linearGradient></defs><defs><linearGradient id="grad1_2" x1="43.8%" y1="0%" x2="100%" y2="100%"><stop offset="14.444444444444446%" stop-color="#5f78a2" stop-opacity="1"></stop><stop offset="85.55555555555554%" stop-color="#3d6090" stop-opacity="1"></stop></linearGradient></defs><defs><linearGradient id="grad1_3" x1="43.8%" y1="0%" x2="100%" y2="100%"><stop offset="14.444444444444446%" stop-color="#5f78a2" stop-opacity="1"></stop><stop offset="85.55555555555554%" stop-color="#7f92b4" stop-opacity="1"></stop></linearGradient></defs><defs><linearGradient id="grad1_4" x1="43.8%" y1="0%" x2="100%" y2="100%"><stop offset="14.444444444444446%" stop-color="#9facc6" stop-opacity="1"></stop><stop offset="85.55555555555554%" stop-color="#7f92b4" stop-opacity="1"></stop></linearGradient></defs><defs><linearGradient id="grad1_5" x1="43.8%" y1="0%" x2="100%" y2="100%"><stop offset="14.444444444444446%" stop-color="#9facc6" stop-opacity="1"></stop><stop offset="85.55555555555554%" stop-color="#bfc7d9" stop-opacity="1"></stop></linearGradient></defs><defs><linearGradient id="grad1_6" x1="43.8%" y1="0%" x2="100%" y2="100%"><stop offset="14.444444444444446%" stop-color="#dfe3ec" stop-opacity="1"></stop><stop offset="85.55555555555554%" stop-color="#bfc7d9" stop-opacity="1"></stop></linearGradient></defs><defs><linearGradient id="grad1_7" x1="43.8%" y1="0%" x2="100%" y2="100%"><stop offset="14.444444444444446%" stop-color="#dfe3ec" stop-opacity="1"></stop><stop offset="85.55555555555554%" stop-color="#ffffff" stop-opacity="1"></stop></linearGradient></defs><defs><linearGradient id="grad2_0" x1="0%" y1="0%" x2="56.3%" y2="100%"><stop offset="14.444444444444446%" stop-color="#0a497e" stop-opacity="1"></stop><stop offset="85.55555555555554%" stop-color="#0a497e" stop-opacity="1"></stop></linearGradient></defs><defs><linearGradient id="grad2_1" x1="0%" y1="0%" x2="56.3%" y2="100%"><stop offset="14.444444444444446%" stop-color="#3d6090" stop-opacity="1"></stop><stop offset="85.55555555555554%" stop-color="#0a497e" stop-opacity="1"></stop></linearGradient></defs><defs><linearGradient id="grad2_2" x1="0%" y1="0%" x2="56.3%" y2="100%"><stop offset="14.444444444444446%" stop-color="#3d6090" stop-opacity="1"></stop><stop offset="85.55555555555554%" stop-color="#5f78a2" stop-opacity="1"></stop></linearGradient></defs><defs><linearGradient id="grad2_3" x1="0%" y1="0%" x2="56.3%" y2="100%"><stop offset="14.444444444444446%" stop-color="#7f92b4" stop-opacity="1"></stop><stop offset="85.55555555555554%" stop-color="#5f78a2" stop-opacity="1"></stop></linearGradient></defs><defs><linearGradient id="grad2_4" x1="0%" y1="0%" x2="56.3%" y2="100%"><stop offset="14.444444444444446%" stop-color="#7f92b4" stop-opacity="1"></stop><stop offset="85.55555555555554%" stop-color="#9facc6" stop-opacity="1"></stop></linearGradient></defs><defs><linearGradient id="grad2_5" x1="0%" y1="0%" x2="56.3%" y2="100%"><stop offset="14.444444444444446%" stop-color="#bfc7d9" stop-opacity="1"></stop><stop offset="85.55555555555554%" stop-color="#9facc6" stop-opacity="1"></stop></linearGradient></defs><defs><linearGradient id="grad2_6" x1="0%" y1="0%" x2="56.3%" y2="100%"><stop offset="14.444444444444446%" stop-color="#bfc7d9" stop-opacity="1"></stop><stop offset="85.55555555555554%" stop-color="#dfe3ec" stop-opacity="1"></stop></linearGradient></defs><defs><linearGradient id="grad2_7" x1="0%" y1="0%" x2="56.3%" y2="100%"><stop offset="14.444444444444446%" stop-color="#ffffff" stop-opacity="1"></stop><stop offset="85.55555555555554%" stop-color="#dfe3ec" stop-opacity="1"></stop></linearGradient></defs><g transform="translate(960, 0)"><path d="M0 486C-47 440.6 -94 395.3 -156.9 378.8C-219.8 362.3 -298.5 374.8 -343.7 343.7C-388.8 312.5 -400.4 237.9 -418.5 173.4C-436.6 108.8 -461.3 54.4 -486 0L0 0Z" fill="#eff1f5"></path><path d="M0 425.3C-41.1 385.5 -82.3 345.8 -137.3 331.4C-192.3 317 -261.2 327.9 -300.7 300.7C-340.2 273.5 -350.3 208.2 -366.2 151.7C-382.1 95.2 -403.7 47.6 -425.2 0L0 0Z" fill="#cfd5e2"></path><path d="M0 364.5C-35.3 330.5 -70.5 296.4 -117.7 284.1C-164.8 271.7 -223.9 281.1 -257.7 257.7C-291.6 234.4 -300.3 178.4 -313.9 130C-327.5 81.6 -346 40.8 -364.5 0L0 0Z" fill="#afb9d0"></path><path d="M0 303.8C-29.4 275.4 -58.8 247 -98.1 236.7C-137.4 226.5 -186.6 234.2 -214.8 214.8C-243 195.3 -250.2 148.7 -261.6 108.3C-272.9 68 -288.3 34 -303.7 0L0 0Z" fill="#8f9fbd"></path><path d="M0 243C-23.5 220.3 -47 197.6 -78.5 189.4C-109.9 181.2 -149.2 187.4 -171.8 171.8C-194.4 156.3 -200.2 118.9 -209.3 86.7C-218.3 54.4 -230.7 27.2 -243 0L0 0Z" fill="#6f85ab"></path><path d="M0 182.3C-17.6 165.2 -35.3 148.2 -58.8 142C-82.4 135.9 -111.9 140.5 -128.9 128.9C-145.8 117.2 -150.1 89.2 -156.9 65C-163.7 40.8 -173 20.4 -182.2 0L0 0Z" fill="#4f6c99"></path><path d="M0 121.5C-11.8 110.2 -23.5 98.8 -39.2 94.7C-54.9 90.6 -74.6 93.7 -85.9 85.9C-97.2 78.1 -100.1 59.5 -104.6 43.3C-109.2 27.2 -115.3 13.6 -121.5 0L0 0Z" fill="#295487"></path><path d="M0 60.8C-5.9 55.1 -11.8 49.4 -19.6 47.3C-27.5 45.3 -37.3 46.8 -43 43C-48.6 39.1 -50 29.7 -52.3 21.7C-54.6 13.6 -57.7 6.8 -60.7 0L0 0Z" fill="#0a497e"></path></g><g transform="translate(0, 540)"><path d="M0 -486C50.8 -451.2 101.6 -416.4 165.3 -399.1C229 -381.8 305.7 -381.9 343.7 -343.7C381.6 -305.4 380.9 -228.6 398.2 -164.9C415.5 -101.3 450.7 -50.6 486 0L0 0Z" fill="#eff1f5"></path><path d="M0 -425.2C44.4 -394.8 88.9 -364.4 144.7 -349.2C200.4 -334.1 267.5 -334.2 300.7 -300.7C333.9 -267.2 333.3 -200 348.4 -144.3C363.5 -88.6 394.4 -44.3 425.3 0L0 0Z" fill="#cfd5e2"></path><path d="M0 -364.5C38.1 -338.4 76.2 -312.3 124 -299.3C171.8 -286.3 229.3 -286.5 257.7 -257.7C286.2 -229 285.7 -171.5 298.6 -123.7C311.6 -75.9 338.1 -38 364.5 0L0 0Z" fill="#afb9d0"></path><path d="M0 -303.7C31.7 -282 63.5 -260.3 103.3 -249.4C143.2 -238.6 191.1 -238.7 214.8 -214.8C238.5 -190.8 238.1 -142.9 248.9 -103.1C259.7 -63.3 281.7 -31.6 303.8 0L0 0Z" fill="#8f9fbd"></path><path d="M0 -243C25.4 -225.6 50.8 -208.2 82.7 -199.6C114.5 -190.9 152.8 -191 171.8 -171.8C190.8 -152.7 190.5 -114.3 199.1 -82.5C207.7 -50.6 225.4 -25.3 243 0L0 0Z" fill="#6f85ab"></path><path d="M0 -182.2C19 -169.2 38.1 -156.2 62 -149.7C85.9 -143.2 114.6 -143.2 128.9 -128.9C143.1 -114.5 142.8 -85.7 149.3 -61.9C155.8 -38 169 -19 182.3 0L0 0Z" fill="#4f6c99"></path><path d="M0 -121.5C12.7 -112.8 25.4 -104.1 41.3 -99.8C57.3 -95.4 76.4 -95.5 85.9 -85.9C95.4 -76.3 95.2 -57.2 99.5 -41.2C103.9 -25.3 112.7 -12.7 121.5 0L0 0Z" fill="#295487"></path><path d="M0 -60.7C6.3 -56.4 12.7 -52.1 20.7 -49.9C28.6 -47.7 38.2 -47.7 43 -43C47.7 -38.2 47.6 -28.6 49.8 -20.6C51.9 -12.7 56.3 -6.3 60.8 0L0 0Z" fill="#0a497e"></path></g></svg>