<svg id="visual" viewBox="0 0 900 600" width="900" height="600" xmlns="http://www.w3.org/2000/svg" xmlns:xlink="http://www.w3.org/1999/xlink" version="1.1"><rect x="0" y="0" width="900" height="600" fill="#ebcb8b"></rect><defs><linearGradient id="grad1_0" x1="33.3%" y1="0%" x2="100%" y2="100%"><stop offset="20%" stop-color="#b48ead" stop-opacity="1"></stop><stop offset="80%" stop-color="#b48ead" stop-opacity="1"></stop></linearGradient></defs><defs><linearGradient id="grad1_1" x1="33.3%" y1="0%" x2="100%" y2="100%"><stop offset="20%" stop-color="#b48ead" stop-opacity="1"></stop><stop offset="80%" stop-color="#c792ab" stop-opacity="1"></stop></linearGradient></defs><defs><linearGradient id="grad1_2" x1="33.3%" y1="0%" x2="100%" y2="100%"><stop offset="20%" stop-color="#d797a6" stop-opacity="1"></stop><stop offset="80%" stop-color="#c792ab" stop-opacity="1"></stop></linearGradient></defs><defs><linearGradient id="grad1_3" x1="33.3%" y1="0%" x2="100%" y2="100%"><stop offset="20%" stop-color="#d797a6" stop-opacity="1"></stop><stop offset="80%" stop-color="#e49e9f" stop-opacity="1"></stop></linearGradient></defs><defs><linearGradient id="grad1_4" x1="33.3%" y1="0%" x2="100%" y2="100%"><stop offset="20%" stop-color="#eda698" stop-opacity="1"></stop><stop offset="80%" stop-color="#e49e9f" stop-opacity="1"></stop></linearGradient></defs><defs><linearGradient id="grad1_5" x1="33.3%" y1="0%" x2="100%" y2="100%"><stop offset="20%" stop-color="#eda698" stop-opacity="1"></stop><stop offset="80%" stop-color="#f1b191" stop-opacity="1"></stop></linearGradient></defs><defs><linearGradient id="grad1_6" x1="33.3%" y1="0%" x2="100%" y2="100%"><stop offset="20%" stop-color="#f1bd8c" stop-opacity="1"></stop><stop offset="80%" stop-color="#f1b191" stop-opacity="1"></stop></linearGradient></defs><defs><linearGradient id="grad1_7" x1="33.3%" y1="0%" x2="100%" y2="100%"><stop offset="20%" stop-color="#f1bd8c" stop-opacity="1"></stop><stop offset="80%" stop-color="#ebcb8b" stop-opacity="1"></stop></linearGradient></defs><defs><linearGradient id="grad2_0" x1="0%" y1="0%" x2="66.7%" y2="100%"><stop offset="20%" stop-color="#b48ead" stop-opacity="1"></stop><stop offset="80%" stop-color="#b48ead" stop-opacity="1"></stop></linearGradient></defs><defs><linearGradient id="grad2_1" x1="0%" y1="0%" x2="66.7%" y2="100%"><stop offset="20%" stop-color="#c792ab" stop-opacity="1"></stop><stop offset="80%" stop-color="#b48ead" stop-opacity="1"></stop></linearGradient></defs><defs><linearGradient id="grad2_2" x1="0%" y1="0%" x2="66.7%" y2="100%"><stop offset="20%" stop-color="#c792ab" stop-opacity="1"></stop><stop offset="80%" stop-color="#d797a6" stop-opacity="1"></stop></linearGradient></defs><defs><linearGradient id="grad2_3" x1="0%" y1="0%" x2="66.7%" y2="100%"><stop offset="20%" stop-color="#e49e9f" stop-opacity="1"></stop><stop offset="80%" stop-color="#d797a6" stop-opacity="1"></stop></linearGradient></defs><defs><linearGradient id="grad2_4" x1="0%" y1="0%" x2="66.7%" y2="100%"><stop offset="20%" stop-color="#e49e9f" stop-opacity="1"></stop><stop offset="80%" stop-color="#eda698" stop-opacity="1"></stop></linearGradient></defs><defs><linearGradient id="grad2_5" x1="0%" y1="0%" x2="66.7%" y2="100%"><stop offset="20%" stop-color="#f1b191" stop-opacity="1"></stop><stop offset="80%" stop-color="#eda698" stop-opacity="1"></stop></linearGradient></defs><defs><linearGradient id="grad2_6" x1="0%" y1="0%" x2="66.7%" y2="100%"><stop offset="20%" stop-color="#f1b191" stop-opacity="1"></stop><stop offset="80%" stop-color="#f1bd8c" stop-opacity="1"></stop></linearGradient></defs><defs><linearGradient id="grad2_7" x1="0%" y1="0%" x2="66.7%" y2="100%"><stop offset="20%" stop-color="#ebcb8b" stop-opacity="1"></stop><stop offset="80%" stop-color="#f1bd8c" stop-opacity="1"></stop></linearGradient></defs><g transform="translate(900, 0)"><path d="M0 405.6C-40.2 370.9 -80.4 336.3 -133.6 322.4C-186.7 308.6 -252.8 315.6 -286.8 286.8C-320.8 258 -322.8 193.4 -337.2 139.7C-351.7 85.9 -378.6 43 -405.6 0L0 0Z" fill="#eec48b"></path><path d="M0 354.9C-35.2 324.6 -70.4 294.2 -116.9 282.1C-163.4 270 -221.2 276.2 -251 251C-280.7 225.8 -282.4 169.3 -295.1 122.2C-307.7 75.2 -331.3 37.6 -354.9 0L0 0Z" fill="#f1b78e"></path><path d="M0 304.2C-30.2 278.2 -60.3 252.2 -100.2 241.8C-140 231.4 -189.6 236.7 -215.1 215.1C-240.6 193.5 -242.1 145.1 -252.9 104.8C-263.8 64.4 -284 32.2 -304.2 0L0 0Z" fill="#f0ab94"></path><path d="M0 253.5C-25.1 231.8 -50.3 210.2 -83.5 201.5C-116.7 192.9 -158 197.3 -179.3 179.3C-200.5 161.3 -201.7 120.9 -210.8 87.3C-219.8 53.7 -236.7 26.8 -253.5 0L0 0Z" fill="#e9a29b"></path><path d="M0 202.8C-20.1 185.5 -40.2 168.1 -66.8 161.2C-93.4 154.3 -126.4 157.8 -143.4 143.4C-160.4 129 -161.4 96.7 -168.6 69.8C-175.8 43 -189.3 21.5 -202.8 0L0 0Z" fill="#de9aa3"></path><path d="M0 152.1C-15.1 139.1 -30.2 126.1 -50.1 120.9C-70 115.7 -94.8 118.4 -107.6 107.6C-120.3 96.8 -121 72.5 -126.5 52.4C-131.9 32.2 -142 16.1 -152.1 0L0 0Z" fill="#cf94a9"></path><path d="M0 101.4C-10.1 92.7 -20.1 84.1 -33.4 80.6C-46.7 77.1 -63.2 78.9 -71.7 71.7C-80.2 64.5 -80.7 48.4 -84.3 34.9C-87.9 21.5 -94.7 10.7 -101.4 0L0 0Z" fill="#be90ac"></path><path d="M0 50.7C-5 46.4 -10.1 42 -16.7 40.3C-23.3 38.6 -31.6 39.5 -35.9 35.9C-40.1 32.3 -40.3 24.2 -42.2 17.5C-44 10.7 -47.3 5.4 -50.7 0L0 0Z" fill="#b48ead"></path></g><g transform="translate(0, 600)"><path d="M0 -405.6C36.3 -360.3 72.6 -315 125.1 -302.1C177.7 -289.2 246.5 -308.8 286.8 -286.8C327.1 -264.8 338.8 -201.3 353.8 -146.6C368.9 -91.8 387.3 -45.9 405.6 0L0 0Z" fill="#eec48b"></path><path d="M0 -354.9C31.8 -315.3 63.5 -275.6 109.5 -264.3C155.5 -253.1 215.7 -270.2 251 -251C286.2 -231.7 296.5 -176.1 309.6 -128.2C322.8 -80.4 338.8 -40.2 354.9 0L0 0Z" fill="#f1b78e"></path><path d="M0 -304.2C27.2 -270.2 54.4 -236.2 93.9 -226.6C133.3 -216.9 184.9 -231.6 215.1 -215.1C245.3 -198.6 254.1 -151 265.4 -109.9C276.7 -68.9 290.4 -34.4 304.2 0L0 0Z" fill="#f0ab94"></path><path d="M0 -253.5C22.7 -225.2 45.4 -196.9 78.2 -188.8C111.1 -180.8 154.1 -193 179.3 -179.3C204.4 -165.5 211.8 -125.8 221.2 -91.6C230.6 -57.4 242 -28.7 253.5 0L0 0Z" fill="#e9a29b"></path><path d="M0 -202.8C18.1 -180.2 36.3 -157.5 62.6 -151.1C88.9 -144.6 123.3 -154.4 143.4 -143.4C163.5 -132.4 169.4 -100.6 176.9 -73.3C184.4 -45.9 193.6 -23 202.8 0L0 0Z" fill="#de9aa3"></path><path d="M0 -152.1C13.6 -135.1 27.2 -118.1 46.9 -113.3C66.6 -108.5 92.5 -115.8 107.6 -107.6C122.7 -99.3 127.1 -75.5 132.7 -55C138.3 -34.4 145.2 -17.2 152.1 0L0 0Z" fill="#cf94a9"></path><path d="M0 -101.4C9.1 -90.1 18.1 -78.7 31.3 -75.5C44.4 -72.3 61.6 -77.2 71.7 -71.7C81.8 -66.2 84.7 -50.3 88.5 -36.6C92.2 -23 96.8 -11.5 101.4 0L0 0Z" fill="#be90ac"></path><path d="M0 -50.7C4.5 -45 9.1 -39.4 15.6 -37.8C22.2 -36.2 30.8 -38.6 35.9 -35.9C40.9 -33.1 42.4 -25.2 44.2 -18.3C46.1 -11.5 48.4 -5.7 50.7 0L0 0Z" fill="#b48ead"></path></g></svg>