<svg id="visual" viewBox="0 0 960 540" width="960" height="540" xmlns="http://www.w3.org/2000/svg" xmlns:xlink="http://www.w3.org/1999/xlink" version="1.1"><rect x="0" y="0" width="960" height="540" fill="#001122"></rect><path d="M0 408L22.8 409C45.7 410 91.3 412 137 409.2C182.7 406.3 228.3 398.7 274 397.3C319.7 396 365.3 401 411.2 399.5C457 398 503 390 548.8 383C594.7 376 640.3 370 686 378.8C731.7 387.7 777.3 411.3 823 416C868.7 420.7 914.3 406.3 937.2 399.2L960 392L960 541L937.2 541C914.3 541 868.7 541 823 541C777.3 541 731.7 541 686 541C640.3 541 594.7 541 548.8 541C503 541 457 541 411.2 541C365.3 541 319.7 541 274 541C228.3 541 182.7 541 137 541C91.3 541 45.7 541 22.8 541L0 541Z" fill="#0a497e"></path><path d="M0 440L22.8 438.5C45.7 437 91.3 434 137 429.2C182.7 424.3 228.3 417.7 274 415.3C319.7 413 365.3 415 411.2 416.5C457 418 503 419 548.8 426.3C594.7 433.7 640.3 447.3 686 454.3C731.7 461.3 777.3 461.7 823 454.8C868.7 448 914.3 434 937.2 427L960 420L960 541L937.2 541C914.3 541 868.7 541 823 541C777.3 541 731.7 541 686 541C640.3 541 594.7 541 548.8 541C503 541 457 541 411.2 541C365.3 541 319.7 541 274 541C228.3 541 182.7 541 137 541C91.3 541 45.7 541 22.8 541L0 541Z" fill="#a85597"></path><path d="M0 460L22.8 463.2C45.7 466.3 91.3 472.7 137 471.2C182.7 469.7 228.3 460.3 274 457.7C319.7 455 365.3 459 411.2 458.5C457 458 503 453 548.8 456.2C594.7 459.3 640.3 470.7 686 473.7C731.7 476.7 777.3 471.3 823 466.8C868.7 462.3 914.3 458.7 937.2 456.8L960 455L960 541L937.2 541C914.3 541 868.7 541 823 541C777.3 541 731.7 541 686 541C640.3 541 594.7 541 548.8 541C503 541 457 541 411.2 541C365.3 541 319.7 541 274 541C228.3 541 182.7 541 137 541C91.3 541 45.7 541 22.8 541L0 541Z" fill="#ff786a"></path><path d="M0 474L22.8 480.7C45.7 487.3 91.3 500.7 137 503.2C182.7 505.7 228.3 497.3 274 490.8C319.7 484.3 365.3 479.7 411.2 477.3C457 475 503 475 548.8 478.3C594.7 481.7 640.3 488.3 686 490.8C731.7 493.3 777.3 491.7 823 493.5C868.7 495.3 914.3 500.7 937.2 503.3L960 506L960 541L937.2 541C914.3 541 868.7 541 823 541C777.3 541 731.7 541 686 541C640.3 541 594.7 541 548.8 541C503 541 457 541 411.2 541C365.3 541 319.7 541 274 541C228.3 541 182.7 541 137 541C91.3 541 45.7 541 22.8 541L0 541Z" fill="#f3d03e"></path></svg>