<svg id="visual" viewBox="0 0 900 600" width="900" height="600" xmlns="http://www.w3.org/2000/svg" xmlns:xlink="http://www.w3.org/1999/xlink" version="1.1"><rect x="0" y="0" width="900" height="600" fill="#d8dee9"></rect><path d="M0 509L21.5 482.3C43 455.7 86 402.3 128.8 382.8C171.7 363.3 214.3 377.7 257.2 403.2C300 428.7 343 465.3 385.8 481.2C428.7 497 471.3 492 514.2 483.5C557 475 600 463 642.8 456.8C685.7 450.7 728.3 450.3 771.2 456.2C814 462 857 474 878.5 480L900 486L900 601L878.5 601C857 601 814 601 771.2 601C728.3 601 685.7 601 642.8 601C600 601 557 601 514.2 601C471.3 601 428.7 601 385.8 601C343 601 300 601 257.2 601C214.3 601 171.7 601 128.8 601C86 601 43 601 21.5 601L0 601Z" fill="#e5e9f0"></path><path d="M0 418L21.5 433.5C43 449 86 480 128.8 489.8C171.7 499.7 214.3 488.3 257.2 491.5C300 494.7 343 512.3 385.8 519.5C428.7 526.7 471.3 523.3 514.2 515.3C557 507.3 600 494.7 642.8 495.5C685.7 496.3 728.3 510.7 771.2 497.7C814 484.7 857 444.3 878.5 424.2L900 404L900 601L878.5 601C857 601 814 601 771.2 601C728.3 601 685.7 601 642.8 601C600 601 557 601 514.2 601C471.3 601 428.7 601 385.8 601C343 601 300 601 257.2 601C214.3 601 171.7 601 128.8 601C86 601 43 601 21.5 601L0 601Z" fill="#c3cedf"></path><path d="M0 551L21.5 545.3C43 539.7 86 528.3 128.8 524.3C171.7 520.3 214.3 523.7 257.2 524.7C300 525.7 343 524.3 385.8 521C428.7 517.7 471.3 512.3 514.2 512.5C557 512.7 600 518.3 642.8 505.5C685.7 492.7 728.3 461.3 771.2 465C814 468.7 857 507.3 878.5 526.7L900 546L900 601L878.5 601C857 601 814 601 771.2 601C728.3 601 685.7 601 642.8 601C600 601 557 601 514.2 601C471.3 601 428.7 601 385.8 601C343 601 300 601 257.2 601C214.3 601 171.7 601 128.8 601C86 601 43 601 21.5 601L0 601Z" fill="#a2b3ce"></path><path d="M0 543L21.5 546.5C43 550 86 557 128.8 549.5C171.7 542 214.3 520 257.2 506.3C300 492.7 343 487.3 385.8 491.7C428.7 496 471.3 510 514.2 521.5C557 533 600 542 642.8 533.2C685.7 524.3 728.3 497.7 771.2 496.5C814 495.3 857 519.7 878.5 531.8L900 544L900 601L878.5 601C857 601 814 601 771.2 601C728.3 601 685.7 601 642.8 601C600 601 557 601 514.2 601C471.3 601 428.7 601 385.8 601C343 601 300 601 257.2 601C214.3 601 171.7 601 128.8 601C86 601 43 601 21.5 601L0 601Z" fill="#819abd"></path><path d="M0 558L21.5 562.3C43 566.7 86 575.3 128.8 569.3C171.7 563.3 214.3 542.7 257.2 538.8C300 535 343 548 385.8 554C428.7 560 471.3 559 514.2 559.3C557 559.7 600 561.3 642.8 562C685.7 562.7 728.3 562.3 771.2 558.3C814 554.3 857 546.7 878.5 542.8L900 539L900 601L878.5 601C857 601 814 601 771.2 601C728.3 601 685.7 601 642.8 601C600 601 557 601 514.2 601C471.3 601 428.7 601 385.8 601C343 601 300 601 257.2 601C214.3 601 171.7 601 128.8 601C86 601 43 601 21.5 601L0 601Z" fill="#5e81ac"></path></svg>