<svg xmlns="http://www.w3.org/2000/svg" width="307" height="322" viewBox="0 0 307 322">
  <defs>
    <style>
      .cls-1 {
        fill: #004580;
        fill-rule: evenodd;
      }
    </style>
  </defs>
  <path id="Preenchimento_de_Cor_1" data-name="Preenchimento de Cor 1" class="cls-1" d="M124,0L40,239s-6.582,29.128,11,54c14.731,20.84,41,28,41,28L176,77H300s11.8-14.771,3-45C295.819,7.322,267,0,267,0H124Zm53,118-29,82h89s17.581-5.071,23-16c9.339-18.835,20-50,20-50s0.271-5.546-2-9c-2.985-4.539-9-7-9-7H177ZM107,1L81,81H0S17.993,46.066,47,26C74.259,7.143,107,1,107,1Zm25,243H241s-28.913,38.673-67,57c-32.41,15.6-69,21-69,21Z"/>
</svg>
