<svg id="visual" viewBox="0 0 960 540" width="960" height="540" xmlns="http://www.w3.org/2000/svg" xmlns:xlink="http://www.w3.org/1999/xlink" version="1.1"><g stroke-width="1" stroke-linejoin="bevel"><path d="M426.7 270L426.7 180L320 180Z" fill="#00a79a" stroke="#00a79a"></path><path d="M320 180L320 270L426.7 270Z" fill="#91d476" stroke="#91d476"></path><path d="M320 270L426.7 360L426.7 270Z" fill="#007098" stroke="#007098"></path><path d="M426.7 180L426.7 90L320 180Z" fill="#00a79a" stroke="#00a79a"></path><path d="M426.7 90L320 90L320 180Z" fill="#38b792" stroke="#38b792"></path><path d="M320 270L320 360L426.7 360Z" fill="#f3e560" stroke="#f3e560"></path><path d="M426.7 360L533.3 270L426.7 270Z" fill="#007098" stroke="#007098"></path><path d="M426.7 270L533.3 270L426.7 180Z" fill="#38b792" stroke="#38b792"></path><path d="M426.7 180L533.3 180L426.7 90Z" fill="#91d476" stroke="#91d476"></path><path d="M533.3 270L533.3 180L426.7 180Z" fill="#38b792" stroke="#38b792"></path><path d="M213.3 180L213.3 270L320 180Z" fill="#f3e560" stroke="#f3e560"></path><path d="M320 180L213.3 270L320 270Z" fill="#00a79a" stroke="#00a79a"></path><path d="M320 270L213.3 270L320 360Z" fill="#64c785" stroke="#64c785"></path><path d="M320 90L213.3 180L320 180Z" fill="#38b792" stroke="#38b792"></path><path d="M426.7 360L533.3 360L533.3 270Z" fill="#0a497e" stroke="#0a497e"></path><path d="M533.3 180L533.3 90L426.7 90Z" fill="#007098" stroke="#007098"></path><path d="M320 90L213.3 90L213.3 180Z" fill="#91d476" stroke="#91d476"></path><path d="M213.3 270L213.3 360L320 360Z" fill="#00a79a" stroke="#00a79a"></path><path d="M533.3 90L426.7 0L426.7 90Z" fill="#007098" stroke="#007098"></path><path d="M426.7 90L426.7 0L320 90Z" fill="#c0de68" stroke="#c0de68"></path><path d="M320 90L320 0L213.3 90Z" fill="#0a497e" stroke="#0a497e"></path><path d="M213.3 360L320 450L320 360Z" fill="#007098" stroke="#007098"></path><path d="M320 360L320 450L426.7 360Z" fill="#00a79a" stroke="#00a79a"></path><path d="M426.7 360L426.7 450L533.3 360Z" fill="#00839d" stroke="#00839d"></path><path d="M320 450L426.7 450L426.7 360Z" fill="#005d8e" stroke="#005d8e"></path><path d="M426.7 0L320 0L320 90Z" fill="#f3e560" stroke="#f3e560"></path><path d="M533.3 270L640 270L533.3 180Z" fill="#00a79a" stroke="#00a79a"></path><path d="M533.3 180L640 180L533.3 90Z" fill="#38b792" stroke="#38b792"></path><path d="M533.3 360L640 270L533.3 270Z" fill="#00839d" stroke="#00839d"></path><path d="M640 270L640 180L533.3 180Z" fill="#007098" stroke="#007098"></path><path d="M213.3 90L106.7 180L213.3 180Z" fill="#005d8e" stroke="#005d8e"></path><path d="M213.3 180L106.7 180L213.3 270Z" fill="#00839d" stroke="#00839d"></path><path d="M213.3 270L106.7 270L213.3 360Z" fill="#0a497e" stroke="#0a497e"></path><path d="M106.7 180L106.7 270L213.3 270Z" fill="#00839d" stroke="#00839d"></path><path d="M426.7 450L533.3 450L533.3 360Z" fill="#00a79a" stroke="#00a79a"></path><path d="M533.3 360L640 360L640 270Z" fill="#00959e" stroke="#00959e"></path><path d="M640 90L533.3 0L533.3 90Z" fill="#c0de68" stroke="#c0de68"></path><path d="M533.3 90L533.3 0L426.7 0Z" fill="#00839d" stroke="#00839d"></path><path d="M320 0L213.3 0L213.3 90Z" fill="#005d8e" stroke="#005d8e"></path><path d="M213.3 90L106.7 90L106.7 180Z" fill="#64c785" stroke="#64c785"></path><path d="M213.3 360L213.3 450L320 450Z" fill="#91d476" stroke="#91d476"></path><path d="M106.7 360L213.3 450L213.3 360Z" fill="#38b792" stroke="#38b792"></path><path d="M533.3 450L640 360L533.3 360Z" fill="#0a497e" stroke="#0a497e"></path><path d="M640 180L640 90L533.3 90Z" fill="#007098" stroke="#007098"></path><path d="M106.7 270L106.7 360L213.3 360Z" fill="#005d8e" stroke="#005d8e"></path><path d="M213.3 0L106.7 90L213.3 90Z" fill="#007098" stroke="#007098"></path><path d="M320 450L426.7 540L426.7 450Z" fill="#64c785" stroke="#64c785"></path><path d="M426.7 450L426.7 540L533.3 450Z" fill="#64c785" stroke="#64c785"></path><path d="M320 540L426.7 540L320 450Z" fill="#c0de68" stroke="#c0de68"></path><path d="M213.3 450L320 540L320 450Z" fill="#64c785" stroke="#64c785"></path><path d="M533.3 540L640 450L533.3 450Z" fill="#0a497e" stroke="#0a497e"></path><path d="M533.3 450L640 450L640 360Z" fill="#0a497e" stroke="#0a497e"></path><path d="M640 90L640 0L533.3 0Z" fill="#00959e" stroke="#00959e"></path><path d="M106.7 360L106.7 450L213.3 450Z" fill="#38b792" stroke="#38b792"></path><path d="M213.3 450L213.3 540L320 540Z" fill="#0a497e" stroke="#0a497e"></path><path d="M213.3 0L106.7 0L106.7 90Z" fill="#00a79a" stroke="#00a79a"></path><path d="M426.7 540L533.3 540L533.3 450Z" fill="#00839d" stroke="#00839d"></path><path d="M106.7 450L213.3 540L213.3 450Z" fill="#00a79a" stroke="#00a79a"></path><path d="M106.7 270L0 270L106.7 360Z" fill="#91d476" stroke="#91d476"></path><path d="M106.7 360L0 360L106.7 450Z" fill="#f3e560" stroke="#f3e560"></path><path d="M106.7 180L0 270L106.7 270Z" fill="#91d476" stroke="#91d476"></path><path d="M0 180L0 270L106.7 180Z" fill="#00839d" stroke="#00839d"></path><path d="M0 180L106.7 180L106.7 90Z" fill="#007098" stroke="#007098"></path><path d="M640 270L746.7 270L640 180Z" fill="#c0de68" stroke="#c0de68"></path><path d="M640 180L746.7 180L640 90Z" fill="#007098" stroke="#007098"></path><path d="M640 90L746.7 90L640 0Z" fill="#91d476" stroke="#91d476"></path><path d="M640 360L746.7 270L640 270Z" fill="#64c785" stroke="#64c785"></path><path d="M746.7 360L746.7 270L640 360Z" fill="#00a79a" stroke="#00a79a"></path><path d="M746.7 270L746.7 180L640 180Z" fill="#00959e" stroke="#00959e"></path><path d="M0 90L0 180L106.7 90Z" fill="#007098" stroke="#007098"></path><path d="M0 270L0 360L106.7 360Z" fill="#00839d" stroke="#00839d"></path><path d="M746.7 450L746.7 360L640 450Z" fill="#f3e560" stroke="#f3e560"></path><path d="M640 450L746.7 360L640 360Z" fill="#38b792" stroke="#38b792"></path><path d="M746.7 180L746.7 90L640 90Z" fill="#00839d" stroke="#00839d"></path><path d="M106.7 0L0 90L106.7 90Z" fill="#00a79a" stroke="#00a79a"></path><path d="M533.3 540L640 540L640 450Z" fill="#0a497e" stroke="#0a497e"></path><path d="M0 450L106.7 540L106.7 450Z" fill="#007098" stroke="#007098"></path><path d="M106.7 450L106.7 540L213.3 540Z" fill="#00839d" stroke="#00839d"></path><path d="M640 540L746.7 450L640 450Z" fill="#007098" stroke="#007098"></path><path d="M106.7 0L0 0L0 90Z" fill="#64c785" stroke="#64c785"></path><path d="M0 360L0 450L106.7 450Z" fill="#0a497e" stroke="#0a497e"></path><path d="M746.7 90L746.7 0L640 0Z" fill="#f3e560" stroke="#f3e560"></path><path d="M746.7 270L853.3 270L746.7 180Z" fill="#f3e560" stroke="#f3e560"></path><path d="M746.7 180L853.3 180L746.7 90Z" fill="#00839d" stroke="#00839d"></path><path d="M746.7 90L853.3 90L746.7 0Z" fill="#0a497e" stroke="#0a497e"></path><path d="M746.7 360L853.3 270L746.7 270Z" fill="#91d476" stroke="#91d476"></path><path d="M853.3 360L853.3 270L746.7 360Z" fill="#0a497e" stroke="#0a497e"></path><path d="M853.3 270L853.3 180L746.7 180Z" fill="#f3e560" stroke="#f3e560"></path><path d="M0 450L0 540L106.7 540Z" fill="#005d8e" stroke="#005d8e"></path><path d="M640 540L746.7 540L746.7 450Z" fill="#00a79a" stroke="#00a79a"></path><path d="M746.7 450L853.3 360L746.7 360Z" fill="#64c785" stroke="#64c785"></path><path d="M853.3 450L853.3 360L746.7 450Z" fill="#f3e560" stroke="#f3e560"></path><path d="M853.3 180L853.3 90L746.7 90Z" fill="#64c785" stroke="#64c785"></path><path d="M746.7 540L853.3 450L746.7 450Z" fill="#91d476" stroke="#91d476"></path><path d="M853.3 90L853.3 0L746.7 0Z" fill="#00a79a" stroke="#00a79a"></path><path d="M746.7 540L853.3 540L853.3 450Z" fill="#00959e" stroke="#00959e"></path><path d="M853.3 180L960 180L853.3 90Z" fill="#00839d" stroke="#00839d"></path><path d="M853.3 90L960 90L853.3 0Z" fill="#91d476" stroke="#91d476"></path><path d="M853.3 270L960 270L853.3 180Z" fill="#00a79a" stroke="#00a79a"></path><path d="M853.3 360L960 270L853.3 270Z" fill="#f3e560" stroke="#f3e560"></path><path d="M960 360L960 270L853.3 360Z" fill="#c0de68" stroke="#c0de68"></path><path d="M960 360L853.3 360L853.3 450Z" fill="#00a79a" stroke="#00a79a"></path><path d="M960 270L960 180L853.3 180Z" fill="#64c785" stroke="#64c785"></path><path d="M960 450L960 360L853.3 450Z" fill="#91d476" stroke="#91d476"></path><path d="M960 180L960 90L853.3 90Z" fill="#007098" stroke="#007098"></path><path d="M853.3 540L960 450L853.3 450Z" fill="#00839d" stroke="#00839d"></path><path d="M960 90L960 0L853.3 0Z" fill="#38b792" stroke="#38b792"></path><path d="M853.3 540L960 540L960 450Z" fill="#38b792" stroke="#38b792"></path></g></svg>