<svg id="visual" viewBox="0 0 960 540" width="960" height="540" xmlns="http://www.w3.org/2000/svg" xmlns:xlink="http://www.w3.org/1999/xlink" version="1.1"><path d="M0 163L22.8 152.2C45.7 141.3 91.3 119.7 137 117C182.7 114.3 228.3 130.7 274 126.2C319.7 121.7 365.3 96.3 411.2 82.8C457 69.3 503 67.7 548.8 65.8C594.7 64 640.3 62 686 62C731.7 62 777.3 64 823 71.3C868.7 78.7 914.3 91.3 937.2 97.7L960 104L960 0L937.2 0C914.3 0 868.7 0 823 0C777.3 0 731.7 0 686 0C640.3 0 594.7 0 548.8 0C503 0 457 0 411.2 0C365.3 0 319.7 0 274 0C228.3 0 182.7 0 137 0C91.3 0 45.7 0 22.8 0L0 0Z" fill="#fdf7e4"></path><path d="M0 212L22.8 209.2C45.7 206.3 91.3 200.7 137 200.7C182.7 200.7 228.3 206.3 274 192C319.7 177.7 365.3 143.3 411.2 134.3C457 125.3 503 141.7 548.8 150.7C594.7 159.7 640.3 161.3 686 155C731.7 148.7 777.3 134.3 823 142.5C868.7 150.7 914.3 181.3 937.2 196.7L960 212L960 102L937.2 95.7C914.3 89.3 868.7 76.7 823 69.3C777.3 62 731.7 60 686 60C640.3 60 594.7 62 548.8 63.8C503 65.7 457 67.3 411.2 80.8C365.3 94.3 319.7 119.7 274 124.2C228.3 128.7 182.7 112.3 137 115C91.3 117.7 45.7 139.3 22.8 150.2L0 161Z" fill="#ece4cd"></path><path d="M0 249L22.8 249C45.7 249 91.3 249 137 252.7C182.7 256.3 228.3 263.7 274 247.5C319.7 231.3 365.3 191.7 411.2 182.7C457 173.7 503 195.3 548.8 208.8C594.7 222.3 640.3 227.7 686 217.8C731.7 208 777.3 183 823 185.7C868.7 188.3 914.3 218.7 937.2 233.8L960 249L960 210L937.2 194.7C914.3 179.3 868.7 148.7 823 140.5C777.3 132.3 731.7 146.7 686 153C640.3 159.3 594.7 157.7 548.8 148.7C503 139.7 457 123.3 411.2 132.3C365.3 141.3 319.7 175.7 274 190C228.3 204.3 182.7 198.7 137 198.7C91.3 198.7 45.7 204.3 22.8 207.2L0 210Z" fill="#dbd1b7"></path><path d="M0 395L22.8 391.5C45.7 388 91.3 381 137 373.8C182.7 366.7 228.3 359.3 274 362C319.7 364.7 365.3 377.3 411.2 376.5C457 375.7 503 361.3 548.8 366.7C594.7 372 640.3 397 686 397C731.7 397 777.3 372 823 378.3C868.7 384.7 914.3 422.3 937.2 441.2L960 460L960 247L937.2 231.8C914.3 216.7 868.7 186.3 823 183.7C777.3 181 731.7 206 686 215.8C640.3 225.7 594.7 220.3 548.8 206.8C503 193.3 457 171.7 411.2 180.7C365.3 189.7 319.7 229.3 274 245.5C228.3 261.7 182.7 254.3 137 250.7C91.3 247 45.7 247 22.8 247L0 247Z" fill="#cbbea1"></path><path d="M0 541L22.8 541C45.7 541 91.3 541 137 541C182.7 541 228.3 541 274 541C319.7 541 365.3 541 411.2 541C457 541 503 541 548.8 541C594.7 541 640.3 541 686 541C731.7 541 777.3 541 823 541C868.7 541 914.3 541 937.2 541L960 541L960 458L937.2 439.2C914.3 420.3 868.7 382.7 823 376.3C777.3 370 731.7 395 686 395C640.3 395 594.7 370 548.8 364.7C503 359.3 457 373.7 411.2 374.5C365.3 375.3 319.7 362.7 274 360C228.3 357.3 182.7 364.7 137 371.8C91.3 379 45.7 386 22.8 389.5L0 393Z" fill="#bbab8c"></path></svg>