<svg id="visual" viewBox="0 0 960 540" width="960" height="540" xmlns="http://www.w3.org/2000/svg" xmlns:xlink="http://www.w3.org/1999/xlink" version="1.1"><rect x="0" y="0" width="960" height="540" fill="#f9f9f9"></rect><path d="M0 350L22.8 363.5C45.7 377 91.3 404 137 404.5C182.7 405 228.3 379 274 353.8C319.7 328.7 365.3 304.3 411.2 309.2C457 314 503 348 548.8 348.3C594.7 348.7 640.3 315.3 686 312C731.7 308.7 777.3 335.3 823 358.7C868.7 382 914.3 402 937.2 412L960 422L960 541L937.2 541C914.3 541 868.7 541 823 541C777.3 541 731.7 541 686 541C640.3 541 594.7 541 548.8 541C503 541 457 541 411.2 541C365.3 541 319.7 541 274 541C228.3 541 182.7 541 137 541C91.3 541 45.7 541 22.8 541L0 541Z" fill="#0A497E" stroke-linecap="round" stroke-linejoin="miter"></path></svg>